<svg width="32" height="42" viewBox="0 0 32 42" fill="none" xmlns="http://www.w3.org/2000/svg">
<path d="M11.36 23.38L16 19.86L20.62 23.38L18.86 17.68L23.5 14H17.82L16 8.38L14.18 14H8.5L13.12 17.68L11.36 23.38ZM32 16C32 7.16 24.84 0 16 0C7.16 0 0 7.16 0 16C0 20.06 1.52 23.74 4 26.56V42L16 38L28 42V26.56C30.48 23.74 32 20.06 32 16ZM16 4C22.62 4 28 9.38 28 16C28 22.62 22.62 28 16 28C9.38 28 4 22.62 4 16C4 9.38 9.38 4 16 4ZM16 34L8 36.04V29.84C10.36 31.2 13.08 32 16 32C18.92 32 21.64 31.2 24 29.84V36.04L16 34Z" fill="#675BC8"/>
</svg>
