<svg width="76" height="51" viewBox="0 0 76 51" fill="none" xmlns="http://www.w3.org/2000/svg">
<path fill-rule="evenodd" clip-rule="evenodd" d="M18.0083 3.24329C18.4803 2.17827 20.139 2.13648 20.6765 3.17607L25.3654 12.244C25.4448 12.3977 25.6162 12.496 25.8047 12.496H36.0801H39.9283H49.2657C49.4584 12.496 49.6328 12.3933 49.7098 12.2344L54.0268 3.32898C54.5491 2.25157 56.2634 2.29285 56.7208 3.39385L64.1744 21.332L64.1807 21.3473L64.1858 21.3629C64.8928 23.5506 65.8103 28.355 65.2557 33.5648L75.2333 31.8748C75.4963 31.8302 75.7496 31.9859 75.7991 32.2225C75.8486 32.459 75.6756 32.6869 75.4126 32.7315L65.1446 34.4707C64.9487 35.8787 64.6399 37.3066 64.1858 38.7118C64.1176 38.9227 64.0427 39.1304 63.9612 39.3352L75.5307 39.6628C75.7982 39.6704 76.0082 39.8716 75.9997 40.1122C75.9913 40.3528 75.7677 40.5417 75.5002 40.5342L63.5724 40.1964C62.1348 43.0351 59.4464 45.2397 56.586 46.8696C53.2393 48.7766 49.5935 49.9341 47.2445 50.4186L47.0279 49.5689C49.2858 49.1032 52.8264 47.9799 56.0674 46.1332C58.7296 44.6162 61.1469 42.6361 62.5146 40.1664L58.1919 40.044C57.9245 40.0364 57.7145 39.8352 57.7229 39.5946C57.7313 39.354 57.955 39.165 58.2224 39.1726L62.9387 39.3062C63.0574 39.0325 63.1632 38.7532 63.2552 38.4684C63.6646 37.2018 63.952 35.9145 64.1429 34.6404L58.3948 35.6141C58.1318 35.6586 57.8785 35.5029 57.829 35.2663C57.7795 35.0298 57.9525 34.8019 58.2155 34.7573L64.2632 33.7329C64.8589 28.5791 63.9542 23.7786 63.2603 21.6219L55.8131 3.69908C55.6606 3.33208 55.0892 3.31833 54.9151 3.67746L50.5981 12.5828C50.367 13.0596 49.8438 13.3678 49.2657 13.3678H39.9283H36.0801H25.8047C25.2393 13.3678 24.7252 13.0728 24.4867 12.6116L19.7979 3.54375C19.6187 3.19722 19.0658 3.21115 18.9084 3.56616L10.9023 21.63C10.1598 23.7939 9.19109 28.6207 9.84174 33.7935L17.7845 35.1389C18.0475 35.1834 18.2205 35.4113 18.171 35.6479C18.1215 35.8845 17.8682 36.0402 17.6052 35.9956L9.97266 34.7028C10.1761 35.9541 10.4793 37.2175 10.9079 38.461C11.0586 38.898 11.2439 39.322 11.4604 39.7331L17.7775 39.5542C18.045 39.5466 18.2687 39.7355 18.2771 39.9761C18.2855 40.2167 18.0755 40.4179 17.808 40.4255L11.9682 40.5909C13.4619 42.858 15.9025 44.6967 18.5792 46.1266C22.0407 47.9757 25.8227 49.1008 28.2368 49.5676L28.0332 50.4199C25.5334 49.9365 21.6498 48.7808 18.0845 46.8762C15.1899 45.3299 12.4556 43.2632 10.8743 40.6219L0.499785 40.9157C0.232317 40.9233 0.00866537 40.7344 0.000244648 40.4938C-0.00817608 40.2532 0.201823 40.052 0.469291 40.0444L10.4117 39.7628C10.249 39.4237 10.1053 39.0759 9.98232 38.7192C9.50413 37.332 9.1769 35.9228 8.96738 34.5325L0.587398 33.113C0.324419 33.0685 0.151373 32.8406 0.20089 32.604C0.250406 32.3674 0.503734 32.2118 0.766713 32.2563L8.84664 33.6249C8.24072 28.3886 9.22474 23.5532 9.98232 21.3555L9.98797 21.3391L9.99503 21.3232L18.0083 3.24329ZM58.9162 25.3699C59.1326 26.1603 58.3796 26.8295 57.4747 26.8295H57.2135C56.4529 26.8295 55.8605 26.2544 55.5694 25.6223C55.3932 25.2395 55.1349 24.8918 54.8093 24.5988C54.4836 24.3059 54.0971 24.0735 53.6716 23.915C53.2461 23.7565 52.7901 23.6749 52.3296 23.6749C51.8691 23.6749 51.4131 23.7565 50.9877 23.915C50.5622 24.0735 50.1756 24.3059 49.85 24.5988C49.5243 24.8918 49.266 25.2395 49.0898 25.6223C48.7988 26.2544 48.2063 26.8295 47.4458 26.8295H47.1845C46.2797 26.8295 45.5266 26.1603 45.7431 25.3699C45.8247 25.0719 45.9313 24.7791 46.0625 24.4942C46.4034 23.7539 46.9031 23.0811 47.533 22.5145C48.1629 21.9478 48.9107 21.4983 49.7337 21.1916C50.5567 20.885 51.4388 20.7271 52.3296 20.7271C53.2204 20.7271 54.1025 20.885 54.9255 21.1916C55.7486 21.4983 56.4964 21.9478 57.1263 22.5145C57.7562 23.0811 58.2558 23.7539 58.5967 24.4942C58.7279 24.7791 58.8346 25.0719 58.9162 25.3699ZM28.8751 26.2417C29.0916 27.0321 28.3385 27.7013 27.4337 27.7013H27.1724C26.4119 27.7013 25.8194 27.1262 25.5284 26.4941C25.3521 26.1113 25.0938 25.7635 24.7682 25.4706C24.4426 25.1777 24.056 24.9453 23.6305 24.7868C23.2051 24.6282 22.7491 24.5466 22.2886 24.5466C21.8281 24.5466 21.3721 24.6282 20.9466 24.7868C20.5211 24.9453 20.1346 25.1777 19.8089 25.4706C19.4833 25.7635 19.225 26.1113 19.0488 26.4941C18.7577 27.1262 18.1653 27.7013 17.4047 27.7013H17.1435C16.2386 27.7013 15.4856 27.0321 15.702 26.2417C15.7836 25.9437 15.8903 25.6509 16.0215 25.366C16.3624 24.6256 16.862 23.9529 17.4919 23.3862C18.1218 22.8196 18.8696 22.3701 19.6926 22.0634C20.5157 21.7567 21.3977 21.5989 22.2886 21.5989C23.1794 21.5989 24.0615 21.7567 24.8845 22.0634C25.7075 22.3701 26.4553 22.8196 27.0852 23.3862C27.7151 23.9529 28.2148 24.6256 28.5557 25.366C28.6868 25.6509 28.7935 25.9437 28.8751 26.2417ZM38.7957 43.6111C38.5159 44.0472 38.0785 44.3197 37.6018 44.4286V48.8418H36.6327V44.4286C36.156 44.3197 35.7187 44.0472 35.4388 43.6111L34.1799 41.6496C33.4339 40.4873 34.3664 39.0343 35.8584 39.0343H38.3761C39.8681 39.0343 40.8006 40.4873 40.0546 41.6496L38.7957 43.6111Z" fill="#5D4FC4"/>
</svg>
