<svg width="76" height="47" viewBox="0 0 76 47" fill="none" xmlns="http://www.w3.org/2000/svg">
<mask id="path-1-inside-1_15128_6070" fill="white">
<path fill-rule="evenodd" clip-rule="evenodd" d="M17.3561 26.7944L17.3507 26.8333L17.1427 28.3231V29.3282C17.1427 30.0574 16.9939 30.7799 16.7041 31.4657L16.2822 34.4887C15.2243 42.068 24.0808 47.9811 32.8462 45.5479C34.0463 45.2147 35.2856 45.0125 36.5331 44.9412V35.9106C36.2738 35.8432 36.0225 35.748 35.7859 35.625L34.3686 34.8879C31.6468 33.4725 32.8624 30.0014 36.0798 30.0014H38.9144C42.1319 30.0014 43.3475 33.4725 40.6257 34.8879L39.2084 35.625C38.9718 35.748 38.7207 35.8432 38.4615 35.9105V44.9352C39.7564 45.0009 41.0432 45.2076 42.2876 45.5551C51.0254 47.9948 59.8918 42.1465 58.923 34.5801L58.2841 29.5905L58.2781 29.5443V29.4978V20.3132L57.6354 13.3421L57.8681 13.3275L57.8651 13.3051L57.6333 13.3133C57.2685 6.36262 50.3315 0.882393 41.8978 0.882393H34.6063C27.7175 0.882393 21.7739 4.29368 19.1589 9.20045L18.6197 10.6831C18.4633 11.1131 18.3541 11.5539 18.2933 12.0001L17.6792 16.5097L17.3573 26.7552L17.3561 26.7944ZM5.88992 35.1935C9.22606 36.502 13.1108 35.7035 15.3494 33.4572L15.2196 34.3878C14.0721 42.6094 23.6791 49.0237 33.1874 46.3842C36.0282 45.5955 39.1055 45.5982 41.9446 46.3909C51.4207 49.0367 61.0376 42.6946 59.9867 34.4874L59.7235 32.4317C61.6513 35.5412 66.2482 36.8498 70.1101 35.3352L70.9702 34.9978C75.528 33.2103 77.3378 28.6359 74.9359 24.9744L62.7081 6.33423C61.5604 4.58467 58.6212 4.36742 57.1148 5.9208C56.8135 6.2315 56.6011 6.58678 56.4838 6.96115C53.5734 2.79028 48.1166 0 41.8978 0H34.6063C28.2813 0 22.7055 2.7043 19.5105 6.8016C19.3921 6.43381 19.1817 6.0849 18.8852 5.77916C17.3788 4.22577 14.4396 4.44303 13.2919 6.19259L1.06407 24.8328C-1.33783 28.4943 0.472018 33.0686 5.02984 34.8562L5.88992 35.1935ZM15.4574 31.6612C15.5297 31.5308 15.5958 31.3983 15.6555 31.2641L16.0731 28.2724L16.0731 24.1242V24.0992L16.0748 24.0742L16.5855 16.6492L16.5872 16.6249L16.5905 16.6007L16.6112 16.4489L16.6751 14.4137C16.7367 12.4535 17.2584 10.5904 18.1536 8.89407L18.4568 8.06026C18.6739 7.46351 18.5218 6.81689 18.05 6.33039C17.0219 5.27023 15.0159 5.4185 14.2326 6.61255L2.0048 25.2528C-0.105501 28.4697 1.48463 32.4887 5.48911 34.0593L6.34919 34.3966C9.7786 35.7416 13.8788 34.5102 15.4574 31.6612ZM59.9252 24.2158L59.9269 24.2408V24.2658L59.9269 29.4699C59.9269 30.275 60.1369 31.0706 60.5426 31.8029C62.1212 34.6519 66.2214 35.8833 69.6508 34.5383L70.5109 34.2009C74.5154 32.6304 76.1055 28.6114 73.9952 25.3944L61.7674 6.7542C60.9841 5.56014 58.9781 5.41187 57.95 6.47203C57.4782 6.95853 57.3261 7.60516 57.5432 8.20191L58.4048 10.5712C58.5796 11.0519 58.7017 11.5445 58.7696 12.0432L59.4095 16.7424L59.4128 16.7666L59.4145 16.7909L59.9252 24.2158ZM52.0104 17.4697C52.1302 18.0498 51.5404 18.5303 50.827 18.5303C50.1137 18.5303 49.5576 18.0392 49.3249 17.4829C49.1859 17.1508 48.9823 16.8491 48.7255 16.5949C48.4688 16.3408 48.164 16.1392 47.8286 16.0017C47.4931 15.8641 47.1336 15.7933 46.7705 15.7933C46.4075 15.7933 46.0479 15.8641 45.7125 16.0017C45.3771 16.1392 45.0723 16.3408 44.8155 16.5949C44.5588 16.8491 44.3552 17.1508 44.2162 17.4829C43.9834 18.0392 43.4274 18.5303 42.714 18.5303C42.0006 18.5303 41.4109 18.0498 41.5307 17.4697C41.5988 17.14 41.6987 16.8166 41.8294 16.5042C42.0982 15.8619 42.4922 15.2782 42.9888 14.7866C43.4854 14.295 44.075 13.905 44.7239 13.6389C45.3727 13.3728 46.0682 13.2359 46.7705 13.2359C47.4729 13.2359 48.1683 13.3728 48.8172 13.6389C49.4661 13.905 50.0557 14.295 50.5523 14.7866C51.0489 15.2782 51.4429 15.8619 51.7117 16.5042C51.8424 16.8166 51.9422 17.14 52.0104 17.4697ZM32.6431 18.5303C33.3565 18.5303 33.9463 18.0498 33.8265 17.4697C33.7584 17.14 33.6585 16.8166 33.5278 16.5042C33.259 15.8619 32.865 15.2782 32.3684 14.7866C31.8718 14.295 31.2822 13.905 30.6333 13.6389C29.9844 13.3728 29.289 13.2359 28.5866 13.2359C27.8843 13.2359 27.1888 13.3728 26.54 13.6389C25.8911 13.905 25.3015 14.295 24.8049 14.7866C24.3083 15.2782 23.9143 15.8619 23.6455 16.5042C23.5148 16.8166 23.4149 17.14 23.3468 17.4697C23.227 18.0498 23.8167 18.5303 24.5301 18.5303C25.2435 18.5303 25.7995 18.0392 26.0323 17.4829C26.1713 17.1508 26.3749 16.8491 26.6316 16.5949C26.8884 16.3408 27.1932 16.1392 27.5286 16.0017C27.864 15.8641 28.2236 15.7933 28.5866 15.7933C28.9497 15.7933 29.3092 15.8641 29.6447 16.0017C29.9801 16.1392 30.2849 16.3408 30.5416 16.5949C30.7984 16.8491 31.002 17.1508 31.141 17.4829C31.3737 18.0392 31.9298 18.5303 32.6431 18.5303Z"/>
</mask>
<path fill-rule="evenodd" clip-rule="evenodd" d="M17.3561 26.7944L17.3507 26.8333L17.1427 28.3231V29.3282C17.1427 30.0574 16.9939 30.7799 16.7041 31.4657L16.2822 34.4887C15.2243 42.068 24.0808 47.9811 32.8462 45.5479C34.0463 45.2147 35.2856 45.0125 36.5331 44.9412V35.9106C36.2738 35.8432 36.0225 35.748 35.7859 35.625L34.3686 34.8879C31.6468 33.4725 32.8624 30.0014 36.0798 30.0014H38.9144C42.1319 30.0014 43.3475 33.4725 40.6257 34.8879L39.2084 35.625C38.9718 35.748 38.7207 35.8432 38.4615 35.9105V44.9352C39.7564 45.0009 41.0432 45.2076 42.2876 45.5551C51.0254 47.9948 59.8918 42.1465 58.923 34.5801L58.2841 29.5905L58.2781 29.5443V29.4978V20.3132L57.6354 13.3421L57.8681 13.3275L57.8651 13.3051L57.6333 13.3133C57.2685 6.36262 50.3315 0.882393 41.8978 0.882393H34.6063C27.7175 0.882393 21.7739 4.29368 19.1589 9.20045L18.6197 10.6831C18.4633 11.1131 18.3541 11.5539 18.2933 12.0001L17.6792 16.5097L17.3573 26.7552L17.3561 26.7944ZM5.88992 35.1935C9.22606 36.502 13.1108 35.7035 15.3494 33.4572L15.2196 34.3878C14.0721 42.6094 23.6791 49.0237 33.1874 46.3842C36.0282 45.5955 39.1055 45.5982 41.9446 46.3909C51.4207 49.0367 61.0376 42.6946 59.9867 34.4874L59.7235 32.4317C61.6513 35.5412 66.2482 36.8498 70.1101 35.3352L70.9702 34.9978C75.528 33.2103 77.3378 28.6359 74.9359 24.9744L62.7081 6.33423C61.5604 4.58467 58.6212 4.36742 57.1148 5.9208C56.8135 6.2315 56.6011 6.58678 56.4838 6.96115C53.5734 2.79028 48.1166 0 41.8978 0H34.6063C28.2813 0 22.7055 2.7043 19.5105 6.8016C19.3921 6.43381 19.1817 6.0849 18.8852 5.77916C17.3788 4.22577 14.4396 4.44303 13.2919 6.19259L1.06407 24.8328C-1.33783 28.4943 0.472018 33.0686 5.02984 34.8562L5.88992 35.1935ZM15.4574 31.6612C15.5297 31.5308 15.5958 31.3983 15.6555 31.2641L16.0731 28.2724L16.0731 24.1242V24.0992L16.0748 24.0742L16.5855 16.6492L16.5872 16.6249L16.5905 16.6007L16.6112 16.4489L16.6751 14.4137C16.7367 12.4535 17.2584 10.5904 18.1536 8.89407L18.4568 8.06026C18.6739 7.46351 18.5218 6.81689 18.05 6.33039C17.0219 5.27023 15.0159 5.4185 14.2326 6.61255L2.0048 25.2528C-0.105501 28.4697 1.48463 32.4887 5.48911 34.0593L6.34919 34.3966C9.7786 35.7416 13.8788 34.5102 15.4574 31.6612ZM59.9252 24.2158L59.9269 24.2408V24.2658L59.9269 29.4699C59.9269 30.275 60.1369 31.0706 60.5426 31.8029C62.1212 34.6519 66.2214 35.8833 69.6508 34.5383L70.5109 34.2009C74.5154 32.6304 76.1055 28.6114 73.9952 25.3944L61.7674 6.7542C60.9841 5.56014 58.9781 5.41187 57.95 6.47203C57.4782 6.95853 57.3261 7.60516 57.5432 8.20191L58.4048 10.5712C58.5796 11.0519 58.7017 11.5445 58.7696 12.0432L59.4095 16.7424L59.4128 16.7666L59.4145 16.7909L59.9252 24.2158ZM52.0104 17.4697C52.1302 18.0498 51.5404 18.5303 50.827 18.5303C50.1137 18.5303 49.5576 18.0392 49.3249 17.4829C49.1859 17.1508 48.9823 16.8491 48.7255 16.5949C48.4688 16.3408 48.164 16.1392 47.8286 16.0017C47.4931 15.8641 47.1336 15.7933 46.7705 15.7933C46.4075 15.7933 46.0479 15.8641 45.7125 16.0017C45.3771 16.1392 45.0723 16.3408 44.8155 16.5949C44.5588 16.8491 44.3552 17.1508 44.2162 17.4829C43.9834 18.0392 43.4274 18.5303 42.714 18.5303C42.0006 18.5303 41.4109 18.0498 41.5307 17.4697C41.5988 17.14 41.6987 16.8166 41.8294 16.5042C42.0982 15.8619 42.4922 15.2782 42.9888 14.7866C43.4854 14.295 44.075 13.905 44.7239 13.6389C45.3727 13.3728 46.0682 13.2359 46.7705 13.2359C47.4729 13.2359 48.1683 13.3728 48.8172 13.6389C49.4661 13.905 50.0557 14.295 50.5523 14.7866C51.0489 15.2782 51.4429 15.8619 51.7117 16.5042C51.8424 16.8166 51.9422 17.14 52.0104 17.4697ZM32.6431 18.5303C33.3565 18.5303 33.9463 18.0498 33.8265 17.4697C33.7584 17.14 33.6585 16.8166 33.5278 16.5042C33.259 15.8619 32.865 15.2782 32.3684 14.7866C31.8718 14.295 31.2822 13.905 30.6333 13.6389C29.9844 13.3728 29.289 13.2359 28.5866 13.2359C27.8843 13.2359 27.1888 13.3728 26.54 13.6389C25.8911 13.905 25.3015 14.295 24.8049 14.7866C24.3083 15.2782 23.9143 15.8619 23.6455 16.5042C23.5148 16.8166 23.4149 17.14 23.3468 17.4697C23.227 18.0498 23.8167 18.5303 24.5301 18.5303C25.2435 18.5303 25.7995 18.0392 26.0323 17.4829C26.1713 17.1508 26.3749 16.8491 26.6316 16.5949C26.8884 16.3408 27.1932 16.1392 27.5286 16.0017C27.864 15.8641 28.2236 15.7933 28.5866 15.7933C28.9497 15.7933 29.3092 15.8641 29.6447 16.0017C29.9801 16.1392 30.2849 16.3408 30.5416 16.5949C30.7984 16.8491 31.002 17.1508 31.141 17.4829C31.3737 18.0392 31.9298 18.5303 32.6431 18.5303Z" fill="#5D4FC4" stroke="#5D4FC4" stroke-width="2" mask="url(#path-1-inside-1_15128_6070)"/>
</svg>
