<svg width="72" height="72" viewBox="0 0 72 72" fill="none" xmlns="http://www.w3.org/2000/svg">
<rect width="72" height="72" fill="white"/>
<path d="M42.1196 68.25L27.7496 68.25C22.8896 68.25 18.4796 66.36 15.2996 62.88C12.1196 59.43 10.5896 54.87 11.0096 50.04C12.0296 37.74 22.8896 27.75 35.2496 27.75C46.6196 27.75 57.3596 36.87 59.2496 48.06C60.1496 53.4 58.8296 58.44 55.5896 62.28C52.2896 66.12 47.5196 68.25 42.1196 68.25ZM35.2196 32.25C25.1696 32.25 16.3196 40.41 15.4796 50.43C15.1796 54 16.2896 57.33 18.5996 59.85C20.9096 62.37 24.1496 63.75 27.7196 63.75L42.0896 63.75C46.1396 63.75 49.7096 62.19 52.0796 59.4C54.4496 56.61 55.4096 52.83 54.7496 48.81C53.2496 39.69 44.4896 32.25 35.2196 32.25Z" fill="#9990DA"/>
<path d="M31.4102 24.75C26.0402 24.75 21.6602 20.37 21.6602 15C21.6602 9.63 26.0402 5.25 31.4102 5.25C36.7802 5.25 41.1602 9.63 41.1602 15C41.1602 20.37 36.8102 24.75 31.4102 24.75ZM31.4102 9.75C28.5302 9.75 26.1602 12.12 26.1602 15C26.1602 17.88 28.5302 20.25 31.4102 20.25C34.2902 20.25 36.6602 17.88 36.6602 15C36.6602 12.12 34.3202 9.75 31.4102 9.75Z" fill="#9990DA"/>
<path d="M51.9004 28.3501C47.3404 28.3501 43.6504 24.6601 43.6504 20.1001C43.6504 15.5401 47.3404 11.8501 51.9004 11.8501C56.4604 11.8501 60.1504 15.5401 60.1504 20.1001C60.1504 24.6601 56.4604 28.3501 51.9004 28.3501ZM51.9004 16.3501C49.8304 16.3501 48.1504 18.0301 48.1504 20.1001C48.1504 22.1701 49.8304 23.8501 51.9004 23.8501C53.9704 23.8501 55.6504 22.1701 55.6504 20.1001C55.6504 18.0301 53.9704 16.3501 51.9004 16.3501Z" fill="#9990DA"/>
<path d="M63 40.3501C59.28 40.3501 56.25 37.3201 56.25 33.6001C56.25 29.8801 59.28 26.8501 63 26.8501C66.72 26.8501 69.75 29.8801 69.75 33.6001C69.75 37.3201 66.72 40.3501 63 40.3501ZM63 31.3501C61.77 31.3501 60.75 32.3701 60.75 33.6001C60.75 34.8301 61.77 35.8501 63 35.8501C64.23 35.8501 65.25 34.8301 65.25 33.6001C65.25 32.3701 64.23 31.3501 63 31.3501Z" fill="#9990DA"/>
<path d="M11.9102 34.3501C7.35016 34.3501 3.66016 30.6601 3.66016 26.1001C3.66016 21.5401 7.35016 17.8501 11.9102 17.8501C16.4702 17.8501 20.1602 21.5401 20.1602 26.1001C20.1602 30.6601 16.4702 34.3501 11.9102 34.3501ZM11.9102 22.3501C9.84016 22.3501 8.16016 24.0301 8.16016 26.1001C8.16016 28.1701 9.84016 29.8501 11.9102 29.8501C13.9802 29.8501 15.6602 28.1701 15.6602 26.1001C15.6602 24.0301 13.9802 22.3501 11.9102 22.3501Z" fill="#9990DA"/>
</svg>
